<?xml version="1.0" encoding="UTF-8"?>
<!DOCTYPE svg PUBLIC "-//W3C//DTD SVG 1.1//EN" "http://www.w3.org/Graphics/SVG/1.1/DTD/svg11.dtd">
<!-- Creator: CorelDRAW -->
<svg xmlns="http://www.w3.org/2000/svg" xml:space="preserve" width="180.622mm" height="180.622mm" version="1.1" style="shape-rendering:geometricPrecision; text-rendering:geometricPrecision; image-rendering:optimizeQuality; fill-rule:evenodd; clip-rule:evenodd"
viewBox="0 0 18062.22 18062.22"
 xmlns:xlink="http://www.w3.org/1999/xlink"
 xmlns:xodm="http://www.corel.com/coreldraw/odm/2003">
 <defs>
  <style type="text/css">
   <![CDATA[
    .fil0 {fill:none}
    .fil1 {fill:white}
    .fil2 {fill:white;fill-rule:nonzero}
   ]]>
  </style>
 </defs>
 <g id="Layer_x0020_1">
  <metadata id="CorelCorpID_0Corel-Layer"/>
  <rect class="fil0" x="-0.01" y="-0.01" width="18062.22" height="18062.22"/>
  <g id="_2046210392176">
   <g>
    <polygon class="fil1" points="1005.42,8192.74 17056.8,8192.74 17056.8,9869.37 1005.42,9869.37 "/>
    <path id="_1" class="fil2" d="M17056.8 8558.73l-16051.38 0 0 -731.98 16051.38 0 364.88 365.99 -364.88 365.99zm0 -731.98l364.88 0 0 365.99 -364.88 -365.99zm-364.88 2042.62l0 -1676.63 729.76 0 0 1676.63 -364.88 365.99 -364.88 -365.99zm729.76 0l0 365.99 -364.88 0 364.88 -365.99zm-16416.26 -365.99l16051.38 0 0 731.98 -16051.38 0 -364.88 -365.99 364.88 -365.99zm0 731.98l-364.88 0 0 -365.99 364.88 365.99zm364.88 -2042.62l0 1676.63 -729.76 0 0 -1676.63 364.88 -365.99 364.88 365.99zm-729.76 0l0 -365.99 364.88 0 -364.88 365.99z"/>
   </g>
   <g>
    <path class="fil2" d="M2464.94 3271.11l0 739.46 -1459.52 0 0 -739.46 1459.52 0zm2189.28 0l0 739.46 -1459.52 0 0 -739.46 1459.52 0zm2189.28 0l0 739.46 -1459.52 0 0 -739.46 1459.52 0zm2189.28 0l0 739.46 -1459.52 0 0 -739.46 1459.52 0zm2189.29 0l0 739.46 -1459.53 0 0 -739.46 1459.53 0zm2189.29 0l0 739.46 -1459.53 0 0 -739.46 1459.53 0zm2189.29 0l0 739.46 -1459.53 0 0 -739.46 1459.53 0zm1456.15 739.46l-726.38 0 0 -739.46 726.38 0 364.88 369.73 -364.88 369.73zm0 -739.46l364.88 0 0 369.73 -364.88 -369.73zm364.88 1112.62l-729.76 0 0 -742.89 729.76 0 0 742.89zm0 2218.37l-729.76 0 0 -1478.92 729.76 0 0 1478.92zm-729.76 1590.68l0 -851.22 729.76 0 0 851.22 -364.88 369.73 -364.88 -369.73zm729.76 0l0 369.73 -364.88 0 364.88 -369.73zm-984.35 369.73l0 -739.46 619.47 0 0 739.46 -619.47 0zm-2189.28 0l0 -739.46 1459.52 0 0 739.46 -1459.52 0zm-2189.28 0l0 -739.46 1459.52 0 0 739.46 -1459.52 0zm-2189.28 0l0 -739.46 1459.52 0 0 739.46 -1459.52 0zm-2189.29 0l0 -739.46 1459.53 0 0 739.46 -1459.53 0zm-2189.29 0l0 -739.46 1459.53 0 0 739.46 -1459.53 0zm-2189.29 0l0 -739.46 1459.53 0 0 739.46 -1459.53 0zm-2189.3 0l0 -739.46 1459.54 0 0 739.46 -1459.54 0zm-471.78 -2479.78l729.76 0 0 1478.91 -729.76 0 0 -1478.91zm0 -2218.38l729.76 0 0 1478.92 -729.76 0 0 -1478.92z"/>
   </g>
   <g>
    <path class="fil2" d="M2464.94 9499.31l0 739.52 -1459.52 0 0 -739.52 1459.52 0zm2189.28 0l0 739.52 -1459.52 0 0 -739.52 1459.52 0zm2189.28 0l0 739.52 -1459.52 0 0 -739.52 1459.52 0zm2189.28 0l0 739.52 -1459.52 0 0 -739.52 1459.52 0zm2189.29 0l0 739.52 -1459.53 0 0 -739.52 1459.53 0zm2189.29 0l0 739.52 -1459.53 0 0 -739.52 1459.53 0zm2189.29 0l0 739.52 -1459.53 0 0 -739.52 1459.53 0zm1456.15 739.52l-726.38 0 0 -739.52 726.38 0 364.88 369.76 -364.88 369.76zm0 -739.52l364.88 0 0 369.76 -364.88 -369.76zm364.88 1112.71l-729.76 0 0 -742.95 729.76 0 0 742.95zm0 2218.55l-729.76 0 0 -1479.04 729.76 0 0 1479.04zm-729.76 1590.81l0 -851.29 729.76 0 0 851.29 -364.88 369.76 -364.88 -369.76zm729.76 0l0 369.76 -364.88 0 364.88 -369.76zm-984.35 369.76l0 -739.52 619.47 0 0 739.52 -619.47 0zm-2189.28 0l0 -739.52 1459.52 0 0 739.52 -1459.52 0zm-2189.28 0l0 -739.52 1459.52 0 0 739.52 -1459.52 0zm-2189.28 0l0 -739.52 1459.52 0 0 739.52 -1459.52 0zm-2189.29 0l0 -739.52 1459.53 0 0 739.52 -1459.53 0zm-2189.29 0l0 -739.52 1459.53 0 0 739.52 -1459.53 0zm-2189.29 0l0 -739.52 1459.53 0 0 739.52 -1459.53 0zm-2189.3 0l0 -739.52 1459.54 0 0 739.52 -1459.54 0zm-471.78 -2479.98l729.76 0 0 1479.03 -729.76 0 0 -1479.03zm0 -2218.56l729.76 0 0 1479.04 -729.76 0 0 -1479.04z"/>
   </g>
  </g>
 </g>
</svg>
