<?xml version="1.0" encoding="UTF-8"?>
<!DOCTYPE svg PUBLIC "-//W3C//DTD SVG 1.1//EN" "http://www.w3.org/Graphics/SVG/1.1/DTD/svg11.dtd">
<!-- Creator: CorelDRAW 2019 (64-Bit) -->
<svg xmlns="http://www.w3.org/2000/svg" xml:space="preserve" width="512px" height="512px" version="1.1" style="shape-rendering:geometricPrecision; text-rendering:geometricPrecision; image-rendering:optimizeQuality; fill-rule:evenodd; clip-rule:evenodd"
viewBox="0 0 512 512"
 xmlns:xlink="http://www.w3.org/1999/xlink">
 <defs>
  <style type="text/css">
   <![CDATA[
    .fil0 {fill:none}
    .fil1 {fill:#2B2E34}
    .fil2 {fill:#2B2E34;fill-rule:nonzero}
   ]]>
  </style>
 </defs>
 <g id="Layer_x0020_1">
  <metadata id="CorelCorpID_0Corel-Layer"/>
  <rect class="fil0" width="512" height="512"/>
  <g id="_2452637767728">
   <g>
    <polygon class="fil1" points="25,231.87 487,231.87 487,280.127 25,280.127 "/>
    <path id="1" class="fil2" d="M487 242.347l-462 0 0 -20.955 462 0 10.446 10.478 -10.446 10.477zm0 -20.955l10.446 0 0 10.478 -10.446 -10.478zm-10.446 58.735l0 -48.257 20.892 0 0 48.257 -10.446 10.478 -10.446 -10.478zm20.892 0l0 10.478 -10.446 0 10.446 -10.478zm-472.446 -10.477l462 0 0 20.955 -462 0 -10.446 -10.478 10.446 -10.477zm0 20.955l-10.446 0 0 -10.478 10.446 10.478zm10.446 -58.735l0 48.257 -20.892 0 0 -48.257 10.446 -10.478 10.446 10.478zm-20.892 0l0 -10.478 10.446 0 -10.446 10.478z"/>
   </g>
   <g>
    <path class="fil2" d="M66.782 90.27l0 21.168 -41.782 0 0 -21.168 41.782 0zm62.673 0l0 21.168 -41.782 0 0 -21.168 41.782 0zm62.673 0l0 21.168 -41.782 0 0 -21.168 41.782 0zm62.674 0l0 21.168 -41.783 0 0 -21.168 41.783 0zm62.673 0l0 21.168 -41.782 0 0 -21.168 41.782 0zm62.673 0l0 21.168 -41.782 0 0 -21.168 41.782 0zm62.673 0l0 21.168 -41.782 0 0 -21.168 41.782 0zm44.179 21.168l-23.288 0 0 -21.168 23.288 0 10.446 10.584 -10.446 10.584zm0 -21.168l10.446 0 0 10.584 -10.446 -10.584zm10.446 29.324l-20.892 0 0 -18.74 20.892 0 0 18.74zm0 63.506l-20.892 0 0 -42.337 20.892 0 0 42.337zm-20.892 48.771l0 -27.602 20.892 0 0 27.602 -10.446 10.584 -10.446 -10.584zm20.892 0l0 10.584 -10.446 0 10.446 -10.584zm-24.988 10.584l0 -21.169 14.542 0 0 21.169 -14.542 0zm-62.673 0l0 -21.169 41.782 0 0 21.169 -41.782 0zm-62.674 0l0 -21.169 41.783 0 0 21.169 -41.783 0zm-62.673 0l0 -21.169 41.782 0 0 21.169 -41.782 0zm-62.673 0l0 -21.169 41.782 0 0 21.169 -41.782 0zm-62.673 0l0 -21.169 41.782 0 0 21.169 -41.782 0zm-62.673 0l0 -21.169 41.782 0 0 21.169 -41.782 0zm-62.674 0l0 -21.169 41.783 0 0 21.169 -41.783 0zm-19.191 -65.229l20.892 0 0 42.337 -20.892 0 0 -42.337zm0 -63.506l20.892 0 0 42.338 -20.892 0 0 -42.338z"/>
   </g>
   <g>
    <path class="fil2" d="M66.782 269.534l0 21.17 -41.782 0 0 -21.17 41.782 0zm62.673 0l0 21.17 -41.782 0 0 -21.17 41.782 0zm62.673 0l0 21.17 -41.782 0 0 -21.17 41.782 0zm62.674 0l0 21.17 -41.783 0 0 -21.17 41.783 0zm62.673 0l0 21.17 -41.782 0 0 -21.17 41.782 0zm62.673 0l0 21.17 -41.782 0 0 -21.17 41.782 0zm62.673 0l0 21.17 -41.782 0 0 -21.17 41.782 0zm44.179 21.17l-23.288 0 0 -21.17 23.288 0 10.446 10.585 -10.446 10.585zm0 -21.17l10.446 0 0 10.585 -10.446 -10.585zm10.446 29.327l-20.892 0 0 -18.742 20.892 0 0 18.742zm0 63.511l-20.892 0 0 -42.341 20.892 0 0 42.341zm-20.892 48.774l0 -27.604 20.892 0 0 27.604 -10.446 10.585 -10.446 -10.585zm20.892 0l0 10.585 -10.446 0 10.446 -10.585zm-24.988 10.585l0 -21.17 14.542 0 0 21.17 -14.542 0zm-62.673 0l0 -21.17 41.782 0 0 21.17 -41.782 0zm-62.674 0l0 -21.17 41.783 0 0 21.17 -41.783 0zm-62.673 0l0 -21.17 41.782 0 0 21.17 -41.782 0zm-62.673 0l0 -21.17 41.782 0 0 21.17 -41.782 0zm-62.673 0l0 -21.17 41.782 0 0 21.17 -41.782 0zm-62.673 0l0 -21.17 41.782 0 0 21.17 -41.782 0zm-62.674 0l0 -21.17 41.783 0 0 21.17 -41.783 0zm-19.191 -65.234l20.892 0 0 42.341 -20.892 0 0 -42.341zm0 -63.511l20.892 0 0 42.341 -20.892 0 0 -42.341z"/>
   </g>
  </g>
 </g>
</svg>
