<?xml version="1.0" encoding="UTF-8"?>
<!DOCTYPE svg PUBLIC "-//W3C//DTD SVG 1.1//EN" "http://www.w3.org/Graphics/SVG/1.1/DTD/svg11.dtd">
<!-- Creator: CorelDRAW 2019 (64-Bit) -->
<svg xmlns="http://www.w3.org/2000/svg" xml:space="preserve" width="512px" height="512px" version="1.1" style="shape-rendering:geometricPrecision; text-rendering:geometricPrecision; image-rendering:optimizeQuality; fill-rule:evenodd; clip-rule:evenodd"
viewBox="0 0 512 512"
 xmlns:xlink="http://www.w3.org/1999/xlink">
 <defs>
  <style type="text/css">
   <![CDATA[
    .fil0 {fill:none}
    .fil1 {fill:white}
    .fil3 {fill:#373435}
    .fil2 {fill:#CCCCCC;fill-rule:nonzero}
    .fil4 {fill:#373435;fill-rule:nonzero}
   ]]>
  </style>
 </defs>
 <g id="Layer_x0020_1">
  <metadata id="CorelCorpID_0Corel-Layer"/>
  <rect class="fil0" width="512" height="512"/>
  <g id="_2452084871904">
   <g>
    <path class="fil1" d="M256 35c123.494,0 223.603,98.944 223.603,221 0,122.057 -100.109,221.001 -223.603,221.001 -123.494,0 -223.602,-98.944 -223.602,-221.001 0,-122.056 100.108,-221 223.602,-221z"/>
    <path id="1" class="fil2" d="M500.266 256l-41.326 0 0 0 -0.264 -10.322 -0.783 -10.172 -1.289 -10.02 -1.78 -9.853 -2.26 -9.679 -2.728 -9.493 -3.182 -9.295 -3.625 -9.087 -4.056 -8.866 -4.473 -8.633 -4.88 -8.388 -5.273 -8.129 -5.654 -7.858 -6.022 -7.574 -6.377 -7.276 -6.72 -6.966 -7.049 -6.642 -7.365 -6.307 -7.668 -5.956 -7.959 -5.593 -8.236 -5.218 -8.499 -4.831 -8.751 -4.429 -8.989 -4.017 -9.214 -3.591 -9.429 -3.153 -9.63 -2.703 -9.82 -2.24 -9.999 -1.765 -10.167 -1.277 -10.324 -0.776 -10.475 -0.262 0 -41.258 12.538 0.313 12.388 0.931 12.214 1.534 12.024 2.122 11.816 2.695 11.591 3.253 11.351 3.796 11.094 4.323 10.82 4.835 10.533 5.331 10.228 5.813 9.908 6.278 9.575 6.729 9.226 7.166 8.861 7.586 8.482 7.993 8.088 8.384 7.678 8.762 7.255 9.123 6.814 9.471 6.359 9.804 5.889 10.123 5.402 10.425 4.9 10.713 4.382 10.985 3.848 11.242 3.299 11.482 2.733 11.705 2.152 11.913 1.556 12.102 0.944 12.274 0.318 12.423 0 0zm-244.266 241.629l0 -41.257 0 0 10.475 -0.262 10.324 -0.776 10.167 -1.277 9.999 -1.765 9.82 -2.24 9.63 -2.703 9.429 -3.153 9.214 -3.591 8.989 -4.017 8.751 -4.429 8.499 -4.831 8.236 -5.218 7.959 -5.594 7.668 -5.956 7.365 -6.306 7.049 -6.642 6.72 -6.966 6.377 -7.277 6.022 -7.574 5.654 -7.858 5.273 -8.129 4.88 -8.387 4.473 -8.633 4.056 -8.866 3.625 -9.087 3.182 -9.296 2.728 -9.492 2.26 -9.679 1.78 -9.854 1.289 -10.019 0.783 -10.173 0.264 -10.322 41.326 0 -0.318 12.424 -0.944 12.274 -1.556 12.102 -2.152 11.912 -2.733 11.706 -3.299 11.482 -3.848 11.242 -4.382 10.984 -4.9 10.713 -5.402 10.426 -5.889 10.122 -6.359 9.804 -6.814 9.471 -7.255 9.124 -7.678 8.761 -8.088 8.385 -8.482 7.992 -8.861 7.587 -9.226 7.165 -9.575 6.73 -9.908 6.278 -10.228 5.812 -10.533 5.332 -10.82 4.835 -11.094 4.322 -11.351 3.796 -11.591 3.253 -11.816 2.696 -12.024 2.122 -12.214 1.534 -12.388 0.931 -12.538 0.312 0 0zm-244.265 -241.629l41.326 0 0 0 0.264 10.322 0.783 10.173 1.288 10.019 1.781 9.854 2.26 9.679 2.727 9.492 3.183 9.296 3.625 9.087 4.055 8.866 4.474 8.633 4.879 8.387 5.274 8.129 5.653 7.859 6.022 7.573 6.378 7.277 6.719 6.966 7.049 6.642 7.366 6.306 7.668 5.956 7.959 5.594 8.235 5.218 8.5 4.831 8.75 4.429 8.989 4.017 9.215 3.59 9.428 3.154 9.631 2.703 9.82 2.24 9.998 1.765 10.167 1.277 10.324 0.776 10.475 0.262 0 41.257 -12.538 -0.312 -12.387 -0.931 -12.215 -1.534 -12.023 -2.122 -11.816 -2.696 -11.592 -3.253 -11.35 -3.795 -11.094 -4.323 -10.821 -4.835 -10.532 -5.332 -10.228 -5.812 -9.909 -6.278 -9.575 -6.73 -9.225 -7.165 -8.862 -7.587 -8.482 -7.992 -8.087 -8.385 -7.679 -8.761 -7.254 -9.124 -6.814 -9.471 -6.359 -9.804 -5.889 -10.122 -5.402 -10.426 -4.9 -10.713 -4.382 -10.984 -3.849 -11.242 -3.298 -11.482 -2.733 -11.706 -2.153 -11.912 -1.555 -12.102 -0.945 -12.274 -0.317 -12.424 0 0zm244.265 -241.629l0 41.258 0 0 -10.475 0.262 -10.324 0.776 -10.167 1.277 -9.998 1.765 -9.82 2.24 -9.631 2.703 -9.428 3.153 -9.215 3.591 -8.989 4.017 -8.75 4.429 -8.5 4.831 -8.235 5.218 -7.959 5.593 -7.668 5.956 -7.366 6.307 -7.049 6.642 -6.719 6.966 -6.378 7.276 -6.022 7.574 -5.653 7.858 -5.274 8.129 -4.879 8.388 -4.474 8.633 -4.055 8.866 -3.625 9.087 -3.183 9.295 -2.727 9.493 -2.26 9.679 -1.781 9.853 -1.288 10.02 -0.783 10.172 -0.264 10.322 -41.326 0 0.317 -12.423 0.945 -12.274 1.555 -12.102 2.153 -11.913 2.733 -11.705 3.298 -11.482 3.849 -11.242 4.382 -10.985 4.9 -10.713 5.402 -10.425 5.889 -10.123 6.359 -9.804 6.814 -9.471 7.254 -9.123 7.679 -8.762 8.087 -8.384 8.482 -7.993 8.862 -7.586 9.225 -7.166 9.575 -6.729 9.909 -6.278 10.228 -5.813 10.532 -5.331 10.821 -4.835 11.094 -4.323 11.35 -3.796 11.592 -3.253 11.816 -2.695 12.023 -2.122 12.215 -1.534 12.387 -0.931 12.538 -0.313 0 0z"/>
   </g>
   <g id="_2452084872960">
    <ellipse class="fil3" cx="256" cy="256" rx="39.479" ry="39.019"/>
    <g>
     <polygon class="fil4" points="276.692,69.535 276.692,256 235.309,256 235.309,69.535 "/>
    </g>
   </g>
  </g>
 </g>
</svg>
