<?xml version="1.0" encoding="UTF-8"?>
<!DOCTYPE svg PUBLIC "-//W3C//DTD SVG 1.1//EN" "http://www.w3.org/Graphics/SVG/1.1/DTD/svg11.dtd">
<!-- Creator: CorelDRAW -->
<svg xmlns="http://www.w3.org/2000/svg" xml:space="preserve" width="180.622mm" height="180.622mm" version="1.1" style="shape-rendering:geometricPrecision; text-rendering:geometricPrecision; image-rendering:optimizeQuality; fill-rule:evenodd; clip-rule:evenodd"
viewBox="0 0 18062.22 18062.22"
 xmlns:xlink="http://www.w3.org/1999/xlink"
 xmlns:xodm="http://www.corel.com/coreldraw/odm/2003">
 <defs>
  <style type="text/css">
   <![CDATA[
    .fil0 {fill:none}
    .fil1 {fill:white}
    .fil2 {fill:white;fill-rule:nonzero}
   ]]>
  </style>
 </defs>
 <g id="Layer_x0020_1">
  <metadata id="CorelCorpID_0Corel-Layer"/>
  <rect class="fil0" x="-0.01" y="-0.01" width="18062.22" height="18062.22"/>
  <g id="_2046322865936">
   <polygon class="fil1" points="14008.1,15983.01 886.3,15983.01 886.3,5247.02 "/>
   <g>
    <path class="fil2" d="M5449.32 2737.33l-473.84 579.1 -1158.22 -947.67 473.84 -579.1 1158.22 947.67zm2895.56 2369.17l-473.84 579.1 -1158.22 -947.67 473.84 -579.1 1158.22 947.67zm2895.57 2369.17l-473.84 579.1 -1158.23 -947.67 473.84 -579.1 1158.23 947.67zm2895.58 2369.18l-473.84 579.1 -1158.23 -947.67 473.84 -579.1 1158.23 947.67zm1319.3 2046.27l-55.79 -45.65 473.84 -579.1 55.79 45.65 -473.84 579.1zm1718.27 922.5l-2115.12 -477.64 1228.16 -1501.04 886.96 1978.68z"/>
   </g>
  </g>
 </g>
</svg>
